<svg xmlns="http://www.w3.org/2000/svg" width="33.478" height="77.306" viewBox="0 0 33.478 77.306"><defs><style>.a{fill:#f3ca90;}</style></defs><g transform="translate(0 0)"><path class="a" d="M389.516,343.015a7.078,7.078,0,1,0-7.079-7.077A7.077,7.077,0,0,0,389.516,343.015Z" transform="translate(-373.104 -328.859)"/><path class="a" d="M409.124,364.306l-3.085-20.92a2.449,2.449,0,0,0-1.188-1.752l-.039-.023c-.066-.037-.13-.077-.2-.108a2.661,2.661,0,0,0-1.279-.337H381.461a2.672,2.672,0,0,0-1.6.535,2.45,2.45,0,0,0-1.076,1.685l-3.085,20.92a2.467,2.467,0,1,0,4.882.72l2.648-17.957h1.319l-4.424,30.222h4.726v21.057a3.144,3.144,0,0,0,6.288,0V377.291h2.546v21.057a3.144,3.144,0,0,0,6.288,0V377.291h4.958l-4.422-30.222h1.086l2.649,17.957a2.467,2.467,0,1,0,4.881-.72Z" transform="translate(-375.674 -324.184)"/></g></svg>