<svg xmlns="http://www.w3.org/2000/svg" width="27.338" height="77.306" viewBox="0 0 27.338 77.306"><defs><style>.a{fill:#81b9ec;}</style></defs><g transform="translate(0 0)"><path class="a" d="M356.665,343.015a7.078,7.078,0,1,0-7.079-7.077A7.077,7.077,0,0,0,356.665,343.015Z" transform="translate(-342.996 -328.859)"/><path class="a" d="M369.68,341.166c-.046,0-.088.011-.134.012s-.087-.012-.132-.012H347.543c-.046,0-.088.011-.134.012s-.087-.012-.133-.012a2.467,2.467,0,0,0-2.467,2.467v23.613a2.467,2.467,0,0,0,4.934,0V347.069h1.174v51.278a3.143,3.143,0,0,0,6.287,0v-25.08h2.546v25.08a3.144,3.144,0,0,0,6.288,0V347.069h1.174v20.178a2.467,2.467,0,0,0,4.934,0V343.633A2.467,2.467,0,0,0,369.68,341.166Z" transform="translate(-344.81 -324.184)"/></g></svg>